# AST/ASF file generated using VICON BodyLanguage
# -----------------------------------------------
:version 1.10
:name VICON
:units
  mass 1.0
  length 0.45
  angle deg
:documentation
   .ast/.asf automatically generated from VICON data using
   VICON BodyBuilder and BodyLanguage model FoxedUp or BRILLIANT.MOD
:root
   order TX TY TZ RX RY RZ
   axis XYZ
   position 0 0 0  
   orientation 0 0 0 
:bonedata
  begin
     id 1 
     name lhipjoint
     direction 0.660183 -0.676772 0.325788 
     length 2.75133 
     axis 0 0 0  XYZ
  end
  begin
     id 2 
     name lfemur
     direction 0.34202 -0.939693 0  
     length 7.70317  
     axis 0 0 20  XYZ
    dof rx ry rz
    limits (-160.0 20.0)
           (-70.0 70.0)
           (-60.0 70.0)
  end
  begin
     id 3 
     name ltibia
     direction 0.342105 -0.939662 0   
     length 7.18701   
     axis 0 0 20   XYZ
    dof rx
    limits (-10.0 170.0)
  end
  begin
     id 4 
     name lfoot
     direction 0.14163 -0.389126 0.910232   
     length 2.41719   
     axis -90 7.62852e-016 20   XYZ
    dof rx rz
    limits (-45.0 90.0)
           (-70.0 20.0)
  end
  begin
     id 5 
     name ltoes
     direction 1.53533e-011 -4.21926e-011 1   
     length 1.18611   
     axis -90 7.62852e-016 20   XYZ
    dof rx
    limits (-90.0 20.0)
  end
  begin
     id 6 
     name rhipjoint
     direction -0.6658 -0.67229 0.323631   
     length 2.76968  
     axis 0 0 0  XYZ 
  end
  begin
     id 7 
     name rfemur
     direction -0.34202 -0.939693 0   
     length 7.92547   
     axis 0 0 -20   XYZ
    dof rx ry rz
    limits (-160.0 20.0)
           (-70.0 70.0)
           (-70.0 60.0)
  end
  begin
     id 8 
     name rtibia
     direction -0.342022 -0.939692 0   
     length 7.22641   
     axis 0 0 -20   XYZ
    dof rx
    limits (-10.0 170.0)
 end
 begin
     id 9 
     name rfoot
     direction -0.105675 -0.29034 0.951071   
     length 2.48149  
     axis -90 -7.62852e-016 -20   XYZ
    dof rx rz
    limits (-45.0 90.0)
           (-20.0 70.0)
  end
  begin
     id 10 
     name rtoes
     direction -1.5349e-011 -4.21859e-011 1   
     length 1.23343   
     axis -90 -7.62852e-016 -20   XYZ
    dof rx
    limits (-90.0 20.0)
  end
  begin
     id 11 
     name lowerback
     direction 0.0104173 0.993624 -0.112266   
     length 2.00527   
     axis 0 0 0   XYZ
    dof rx ry rz
    limits (-20.0 45.0)
           (-30.0 30.0)
           (-30.0 30.0)
  end
  begin
     id 12 
     name upperback
     direction 0.00733149 0.999856 -0.0152913   
     length 2.01385   
     axis 0 0 0   XYZ
    dof rx ry rz
    limits (-20.0 45.0)
           (-30.0 30.0)
           (-30.0 30.0)
  end
  begin
     id 13 
     name thorax
     direction 0.0026304 0.999318 0.036841   
     length 2.03734   
     axis 0 0 0   XYZ
    dof rx ry rz
    limits (-20.0 45.0)
           (-30.0 30.0)
           (-30.0 30.0)
  end
  begin
     id 14 
     name lowerneck
     direction 0.0293154 0.998757 0.0403082   
     length 1.65303   
     axis 0 0 0   XYZ
    dof rx ry rz
    limits (-20.0 45.0)
           (-30.0 30.0)
           (-30.0 30.0)
  end
  begin
     id 15 
     name upperneck
     direction -0.0376619 0.998184 -0.0470083   
     length 1.60926   
     axis 0 0 0   XYZ
    dof rx ry rz
    limits (-20.0 45.0)
           (-30.0 30.0)
           (-30.0 30.0)
  end
  begin
     id 16
     name head
     direction -0.0170133 0.999635 -0.0209778  
     length 1.73625  
     axis 0 0 0   XYZ
    dof rx ry rz
    limits (-20.0 45.0)
           (-30.0 30.0)
           (-30.0 30.0)
  end
  begin
     id 17 
     name lclavicle
     direction 0.919857 0.39181 -0.0186333  
     length 3.75313  
     axis 0 0 0   XYZ
    dof ry rz
    limits (-20.0 10.0)
           (0.0 20.0)
  end
  begin
     id 18 
     name lhumerus
     direction 1 -4.48988e-011 1.44029e-027   
     length 5.49313   
     axis 180 -30 -90   XYZ
    dof rx ry rz
    limits (-60.0 90.0)
           (-90.0 90.0)
           (-90.0 90.0)
  end
  begin
     id 19
     name lradius
     direction 1 -4.48924e-011 7.46281e-027   
     length 3.29037   
     axis 180 -30 -90   XYZ
    dof rx
    limits (-10.0 170.0)
  end
  begin
     id 20
     name lwrist
     direction 1 -4.48955e-011 2.19879e-026   
     length 1.64519   
     axis -1.34358e-014 90 90   XYZ
    dof ry
    limits (-180.0 0.0)
 end
  begin
     id 21 
     name lhand
     direction 1 -4.48978e-011 4.39747e-026   
     length 0.729656   
     axis -2.80598e-014 90 90   XYZ
    dof rx rz
    limits (-90.0 90.0)
           (-45.0 45.0)
  end
  begin
     id 22 
     name lfingers
     direction 1 -4.49071e-011 8.79411e-026   
     length 0.588268   
     axis -5.61193e-014 90 90   XYZ
    dof rx
    limits (0.0 90.0)
  end
  begin
     id 23
     name lthumb
     direction 0.707107 -6.34817e-011 0.707107   
     length 0.844638   
     axis -90 45 -9.86923e-015   XYZ
    dof rx rz
    limits (-45.0 45.0)
           (-45.0 45.0)
  end
  begin
     id 24 
     name rclavicle
     direction -0.919898 0.388279 0.0550233   
     length 3.7171  
     axis 0 0 0   XYZ 
    dof ry rz
    limits (-10.0 20.0)
           (-20.0 0.0)
  end
  begin
     id 25 
     name rhumerus
     direction -1 -4.48968e-011 9.98372e-028  
     length 5.23684   
     axis 180 30 90   XYZ
    dof rx ry rz
    limits (-90.0 60.0)
           (-90.0 90.0)
           (-90.0 90.0)
  end
  begin
     id 26 
     name rradius
     direction -1 -4.48956e-011 1.01023e-026   
     length 3.38251   
     axis 180 30 90   XYZ
    dof rx
    limits (-10.0 170.0)
  end
  begin
     id 27 
     name rwrist
     direction -1 -4.4892e-011 2.19886e-026   
     length 1.69126   
     axis -1.34358e-014 -90 -90   XYZ
    dof ry
    limits (-180.0 0.0)
  end
  begin
     id 28
     name rhand
     direction -1 -4.49024e-011 4.39727e-026   
     length 0.691454   
     axis -2.80598e-014 -90 -90   XYZ
    dof rx rz
    limits (-90.0 90.0)
           (-45.0 45.0)
  end
  begin
     id 29
     name rfingers
     direction -1 -4.49097e-011 8.79388e-026   
     length 0.557468   
     axis -5.61193e-014 -90 -90   XYZ
    dof rx
    limits (0.0 90.0)
  end
  begin
     id 30
     name rthumb
     direction -0.707107 -6.34938e-011 0.707107   
     length 0.800416   
     axis -90 -45 9.86923e-015   XYZ
    dof rx rz
    limits (-45.0 45.0)
           (-45.0 45.0)
  end
:hierarchy
  begin
    root lhipjoint rhipjoint lowerback
    lhipjoint lfemur
    lfemur ltibia
    ltibia lfoot
    lfoot ltoes
    rhipjoint rfemur
    rfemur rtibia
    rtibia rfoot
    rfoot rtoes
    lowerback upperback
    upperback thorax
    thorax lowerneck lclavicle rclavicle
    lowerneck upperneck
    upperneck head
    lclavicle lhumerus
    lhumerus lradius
    lradius lwrist
    lwrist lhand lthumb
    lhand lfingers
    rclavicle rhumerus
    rhumerus rradius
    rradius rwrist
    rwrist rhand rthumb
    rhand rfingers
  end

#!OML:ASF H:\BabyWalks\Project 1\Capture day 1\Session 1\baby.ASF
:FULLY-SPECIFIED
:DEGREES
127
root -14.2653 16.0035 -2.22126 98.7819 -85.1588 -113.828
lowerback 13.9945 0.0176155 1.19248
upperback 3.99863 0.0505209 1.07969
thorax -3.62601 -0.0607355 0.452372
lowerneck -4.41964 0.317888 5.02986
upperneck 9.34747 0.295227 -3.62397
head 3.87942 0.13931 -2.10116
rclavicle 2.2239e-015 4.37326e-015
rhumerus 29.8772 5.93368 -64.5207
rradius 76.8191
rwrist 15.8783
rhand 26.7717 -27.1757
rfingers 7.12502
rthumb 50.7826 -47.9776
lclavicle 2.2239e-015 4.37326e-015
lhumerus 30.9516 -9.08359 61.9434
lradius 80.3621
lwrist -4.13615
lhand 26.9315 31.5364
lfingers 7.12502
lthumb 50.9283 52.2577
rfemur -1.72666 -11.9483 12.2189
rtibia 56.0191
rfoot -30.7671 -7.91809
rtoes -16.5253
lfemur -3.2351 10.5687 0.107769
ltibia 54.7874
lfoot -35.7111 -6.81048
ltoes -14.3976
128
root -14.264 16.0025 -2.2233 99.2266 -85.1842 -114.253
lowerback 13.9922 0.0183352 1.17332
upperback 3.9953 0.0483117 1.06076
thorax -3.62826 -0.0616056 0.443756
lowerneck -4.35171 0.312007 4.91924
upperneck 9.12997 0.287632 -3.49351
head 3.78605 0.1377 -2.0325
rclavicle -4.41053e-016 -9.34288e-015
rhumerus 29.8708 5.83491 -64.5375
rradius 76.8887
rwrist 15.9511
rhand 26.7507 -27.1368
rfingers 7.12502
rthumb 50.7635 -47.9492
lclavicle -4.41053e-016 -9.34288e-015
lhumerus 30.9341 -8.92456 61.934
lradius 80.3428
lwrist -4.19925
lhand 26.7668 31.6265
lfingers 7.12502
lthumb 50.7781 52.4309
rfemur -1.77848 -11.8551 12.1873
rtibia 56.0652
rfoot -30.791 -7.81912
rtoes -16.6886
lfemur -3.25076 10.6257 0.0948011
ltibia 54.8103
lfoot -35.7242 -6.86516
ltoes -14.3106
129
root -14.2656 15.9986 -2.23522 100.247 -84.9859 -115.307
lowerback 13.9677 0.053991 1.20291
upperback 4.04194 0.0983261 1.13016
thorax -3.56601 -0.0380976 0.491108
lowerneck -4.50457 0.358065 4.76285
upperneck 9.17775 0.341336 -3.3279
head 3.83208 0.165465 -1.94691
rclavicle -7.26806e-016 -6.95746e-015
rhumerus 29.9027 5.74934 -64.5575
rradius 76.9509
rwrist 16.0177
rhand 26.5117 -27.1522
rfingers 7.12502
rthumb 50.5453 -48.0838
lclavicle -7.26806e-016 -6.95746e-015
lhumerus 30.9496 -8.71104 61.9536
lradius 80.2742
lwrist -4.34864
lhand 26.939 31.5985
lfingers 7.12502
lthumb 50.9352 52.316
rfemur -1.81354 -11.7141 12.4615
rtibia 56.1066
rfoot -30.8325 -7.86036
rtoes -16.6592
lfemur -3.19815 10.7994 0.421364
ltibia 54.8647
lfoot -35.7549 -7.01668
ltoes -14.3724
130
root -14.264 15.9939 -2.23383 100.443 -85.0373 -115.464
lowerback 13.9329 0.0325045 1.2077
upperback 4.0345 0.0697107 1.10113
thorax -3.55493 -0.0517719 0.462706
lowerneck -5.83114 0.65596 2.85607
upperneck 10.4346 0.652096 -1.20909
head 4.51957 0.343922 -0.885144
rclavicle -7.15004e-015 -1.59028e-015
rhumerus 29.8626 5.65719 -64.5756
rradius 77.0671
rwrist 16.1205
rhand 26.562 -27.0839
rfingers 7.12502
rthumb 50.5913 -47.9906
lclavicle -7.15004e-015 -1.59028e-015
lhumerus 30.8657 -8.51649 61.977
lradius 80.2778
lwrist -4.45443
lhand 26.9877 31.4806
lfingers 7.12502
lthumb 50.9796 52.1734
rfemur -1.85906 -11.8888 12.3474
rtibia 56.1411
rfoot -30.9274 -7.79104
rtoes -16.4633
lfemur -3.26997 10.8486 0.361659
ltibia 54.9354
lfoot -35.8008 -7.04405
ltoes -14.3639
131
root -14.2616 15.989 -2.23589 100.455 -85.0279 -115.429
lowerback 13.8975 0.025929 1.22844
upperback 4.04525 0.0629221 1.10551
thorax -3.52443 -0.0551791 0.456561
lowerneck -4.51262 0.347765 4.60939
upperneck 8.90488 0.331285 -3.21924
head 3.734 0.160133 -1.8785
rclavicle -1.53437e-015 -1.98785e-016
rhumerus 29.8452 5.52169 -64.5759
rradius 77.1582
rwrist 16.2253
rhand 26.4503 -27.1544
rfingers 7.12502
rthumb 50.4893 -48.1164
lclavicle -1.53437e-015 -1.98785e-016
lhumerus 30.848 -8.32664 62.035
lradius 80.2519
lwrist -4.57269
lhand 26.8669 31.5386
lfingers 7.12502
lthumb 50.8694 52.2927
rfemur -1.93282 -12.0811 12.352
rtibia 56.1668
rfoot -31.1046 -7.84383
rtoes -16.093
lfemur -3.37002 10.9209 0.399316
ltibia 55.0312
lfoot -35.8413 -7.09243
ltoes -14.3709
132
root -14.2616 15.9806 -2.23873 100.057 -85.0072 -115.024
lowerback 13.913 0.00341344 1.25488
upperback 4.03564 0.0377949 1.11348
thorax -3.54287 -0.0677082 0.454234
lowerneck -4.17406 0.284143 4.89948
upperneck 8.39936 0.267455 -3.56802
head 3.49469 0.12536 -2.04258
rclavicle 5.97286e-015 -1.74931e-014
rhumerus 29.8045 5.44092 -64.5663
rradius 77.2092
rwrist 16.319
rhand 26.4035 -27.0575
rfingers 7.12502
rthumb 50.4465 -48.0426
lclavicle 5.97286e-015 -1.74931e-014
lhumerus 30.75 -8.16786 62.0295
lradius 80.2872
lwrist -4.5903
lhand 26.8154 31.5724
lfingers 7.12502
lthumb 50.8225 52.3524
rfemur -1.92436 -12.3576 12.3632
rtibia 56.1648
rfoot -31.2763 -7.98388
rtoes -15.7083
lfemur -3.42934 10.9461 0.467253
ltibia 55.1324
lfoot -35.9106 -7.13756
ltoes -14.3702
133
root -14.2618 15.9716 -2.24462 99.6615 -84.9732 -114.662
lowerback 13.9118 -0.0159465 1.22954
upperback 4.08687 0.00637674 1.1497
thorax -3.48853 -0.0843327 0.511511
lowerneck -4.43456 0.324212 4.63204
upperneck 8.50473 0.307083 -3.27255
head 3.578 0.147356 -1.89559
rclavicle 3.21472e-015 -1.25234e-014
rhumerus 29.8075 5.32583 -64.5976
rradius 77.2676
rwrist 16.3958
rhand 26.3544 -26.905
rfingers 7.12502
rthumb 50.4017 -47.9142
lclavicle 3.21472e-015 -1.25234e-014
lhumerus 30.7326 -7.90369 62.1026
lradius 80.2543
lwrist -4.63815
lhand 26.8723 31.5336
lfingers 7.12502
lthumb 50.8743 52.2849
rfemur -1.85469 -12.6027 12.4236
rtibia 56.1303
rfoot -31.4974 -8.21866
rtoes -15.2203
lfemur -3.46183 10.9969 0.580773
ltibia 55.2543
lfoot -35.9839 -7.21216
ltoes -14.4079
134
root -14.261 15.9683 -2.25005 99.4554 -84.9653 -114.424
lowerback 13.8873 -0.029229 1.19832
upperback 4.10211 -0.0160673 1.16948
thorax -3.45935 -0.0956247 0.553395
lowerneck -4.43526 0.332794 4.6831
upperneck 8.35525 0.324205 -3.37802
head 3.52838 0.153395 -1.93783
rclavicle -4.7553e-015 2.34566e-014
rhumerus 29.8199 5.21286 -64.5738
rradius 77.3033
rwrist 16.4872
rhand 26.3393 -26.8957
rfingers 7.12502
rthumb 50.3879 -47.9123
lclavicle -4.7553e-015 2.34566e-014
lhumerus 30.6704 -7.69114 62.1379
lradius 80.23
lwrist -4.70012
lhand 26.9166 31.5922
lfingers 7.12502
lthumb 50.9148 52.321
rfemur -1.86201 -12.8471 12.4647
rtibia 56.0743
rfoot -31.6787 -8.44735
rtoes -14.7408
lfemur -3.5623 11.067 0.641301
ltibia 55.3873
lfoot -36.05 -7.27856
ltoes -14.4134
135
root -14.2596 15.9599 -2.25447 98.9371 -84.7883 -113.923
lowerback 13.9015 -0.0504479 1.36468
upperback 4.13672 -0.0220084 1.23056
thorax -3.43034 -0.10014 0.524323
lowerneck -4.63591 0.325324 4.52527
upperneck 8.34475 0.310145 -3.26313
head 3.56015 0.145454 -1.87231
rclavicle -3.88562e-015 1.8487e-014
rhumerus 29.7588 5.08179 -64.5628
rradius 77.3748
rwrist 16.6126
rhand 26.3353 -26.6504
rfingers 7.12502
rthumb 50.3842 -47.669
lclavicle -3.88562e-015 1.8487e-014
lhumerus 30.6129 -7.51575 62.1244
lradius 80.2556
lwrist -4.68602
lhand 26.8376 31.6191
lfingers 7.12502
lthumb 50.8427 52.3879
rfemur -1.7968 -13.0459 12.7074
rtibia 55.9954
rfoot -31.8753 -8.78883
rtoes -14.4421
lfemur -3.619 11.1517 0.926889
ltibia 55.5186
lfoot -36.1294 -7.3968
ltoes -14.431
136
root -14.2569 15.9462 -2.25689 98.738 -84.6602 -113.711
lowerback 13.8901 -0.0756967 1.48381
upperback 4.15526 -0.0393084 1.28129
thorax -3.40447 -0.109643 0.512888
lowerneck -4.64437 0.270626 4.52955
upperneck 8.12827 0.241561 -3.32197
head 3.48375 0.109394 -1.89308
rclavicle -2.48481e-016 -1.0138e-014
rhumerus 29.7426 4.98181 -64.5579
rradius 77.3835
rwrist 16.8297
rhand 26.4217 -26.5486
rfingers 7.12502
rthumb 50.4632 -47.5247
lclavicle -2.48481e-016 -1.0138e-014
lhumerus 30.4916 -7.31598 62.1275
lradius 80.2873
lwrist -4.73345
lhand 26.8255 31.6391
lfingers 7.12502
lthumb 50.8316 52.4139
rfemur -1.78793 -13.2448 12.8506
rtibia 55.9539
rfoot -32.0737 -9.00327
rtoes -14.1363
lfemur -3.71337 11.2148 1.12025
ltibia 55.6644
lfoot -36.179 -7.47232
ltoes -14.4273
